<?xml version="1.0"?>
<svg xmlns="http://www.w3.org/2000/svg" xmlns:xlink="http://www.w3.org/1999/xlink" version="1.1" id="Capa_1" x="0px" y="0px" viewBox="0 0 511.999 511.999" style="enable-background:new 0 0 511.999 511.999;" xml:space="preserve" width="512px" height="512px" class=""><g><g>
	<g>
		<path d="M93.865,25.604H8.533C3.823,25.604,0,29.426,0,34.137v443.726c0,4.719,3.823,8.533,8.533,8.533h85.332    c4.71,0,8.533-3.814,8.533-8.533V34.137C102.398,29.426,98.575,25.604,93.865,25.604z M85.332,469.329H17.066V42.67h68.266    V469.329z" data-original="#000000" class="active-path" data-old_color="#000000" fill="#FFFFFF"/>
	</g>
</g><g>
	<g>
		<path d="M213.33,93.869H93.865c-4.71,0-8.533,3.823-8.533,8.533v375.46c0,4.719,3.823,8.533,8.533,8.533H213.33    c4.71,0,8.533-3.814,8.533-8.533v-375.46C221.863,97.692,218.04,93.869,213.33,93.869z M204.797,469.329H102.398V110.936h102.398    V469.329z" data-original="#000000" class="active-path" data-old_color="#000000" fill="#FFFFFF"/>
	</g>
</g><g>
	<g>
		<path d="M281.595,76.803H213.33c-4.71,0-8.533,3.823-8.533,8.533v392.527c0,4.719,3.823,8.533,8.533,8.533h68.266    c4.719,0,8.533-3.814,8.533-8.533V85.336C290.128,80.626,286.314,76.803,281.595,76.803z M273.062,469.329h-51.199V93.869h51.199    V469.329z" data-original="#000000" class="active-path" data-old_color="#000000" fill="#FFFFFF"/>
	</g>
</g><g>
	<g>
		<path d="M349.861,76.803h-68.266c-4.719,0-8.533,3.823-8.533,8.533v392.527c0,4.719,3.814,8.533,8.533,8.533h68.266    c4.719,0,8.533-3.814,8.533-8.533V85.336C358.394,80.626,354.58,76.803,349.861,76.803z M341.328,469.329h-51.199V93.869h51.199    V469.329z" data-original="#000000" class="active-path" data-old_color="#000000" fill="#FFFFFF"/>
	</g>
</g><g>
	<g>
		<path d="M511.718,458.629l-93.865-358.394c-0.589-2.219-2.039-4.113-4.036-5.248c-1.997-1.135-4.369-1.425-6.571-0.794    l-59.732,17.066c-4.463,1.28-7.091,5.879-5.914,10.368l93.865,358.394c0.589,2.227,2.039,4.113,4.036,5.256    c1.297,0.734,2.756,1.118,4.224,1.118c0.785,0,1.579-0.102,2.347-0.333l59.732-17.066    C510.268,467.717,512.896,463.109,511.718,458.629z M449.767,467.264l-89.539-341.882l43.323-12.382l89.539,341.891    L449.767,467.264z" data-original="#000000" class="active-path" data-old_color="#000000" fill="#FFFFFF"/>
	</g>
</g><g>
	<g>
		<rect x="8.533" y="59.736" width="85.332" height="17.066" data-original="#000000" class="active-path" data-old_color="#000000" fill="#FFFFFF"/>
	</g>
</g><g>
	<g>
		<rect x="8.533" y="418.13" width="85.332" height="17.066" data-original="#000000" class="active-path" data-old_color="#000000" fill="#FFFFFF"/>
	</g>
</g><g>
	<g>
		<rect x="93.865" y="128.002" width="119.465" height="17.066" data-original="#000000" class="active-path" data-old_color="#000000" fill="#FFFFFF"/>
	</g>
</g><g>
	<g>
		<rect x="213.33" y="110.936" width="68.266" height="17.066" data-original="#000000" class="active-path" data-old_color="#000000" fill="#FFFFFF"/>
	</g>
</g><g>
	<g>
		<rect x="213.33" y="145.068" width="68.266" height="17.066" data-original="#000000" class="active-path" data-old_color="#000000" fill="#FFFFFF"/>
	</g>
</g><g>
	<g>
		<rect x="281.595" y="110.936" width="68.266" height="17.066" data-original="#000000" class="active-path" data-old_color="#000000" fill="#FFFFFF"/>
	</g>
</g><g>
	<g>
		<rect x="281.595" y="145.068" width="68.266" height="17.066" data-original="#000000" class="active-path" data-old_color="#000000" fill="#FFFFFF"/>
	</g>
</g><g>
	<g>
		<rect x="8.533" y="383.998" width="76.799" height="17.066" data-original="#000000" class="active-path" data-old_color="#000000" fill="#FFFFFF"/>
	</g>
</g><g>
	<g>
		
			<rect x="357.202" y="136.513" transform="matrix(0.9616 -0.2745 0.2745 0.9616 -24.9008 112.1482)" width="62.122" height="17.067" data-original="#000000" class="active-path" data-old_color="#000000" fill="#FFFFFF"/>
	</g>
</g><g>
	<g>
		<rect x="93.865" y="435.197" width="119.465" height="17.066" data-original="#000000" class="active-path" data-old_color="#000000" fill="#FFFFFF"/>
	</g>
</g><g>
	<g>
		<rect x="238.929" y="358.398" width="17.066" height="76.799" data-original="#000000" class="active-path" data-old_color="#000000" fill="#FFFFFF"/>
	</g>
</g><g>
	<g>
		<rect x="238.929" y="324.265" width="17.066" height="17.066" data-original="#000000" class="active-path" data-old_color="#000000" fill="#FFFFFF"/>
	</g>
</g><g>
	<g>
		<rect x="238.929" y="247.467" width="17.066" height="59.732" data-original="#000000" class="active-path" data-old_color="#000000" fill="#FFFFFF"/>
	</g>
</g><g>
	<g>
		<rect x="238.929" y="196.267" width="17.066" height="34.133" data-original="#000000" class="active-path" data-old_color="#000000" fill="#FFFFFF"/>
	</g>
</g><g>
	<g>
		<rect x="307.195" y="383.998" width="17.066" height="51.199" data-original="#000000" class="active-path" data-old_color="#000000" fill="#FFFFFF"/>
	</g>
</g><g>
	<g>
		<rect x="307.195" y="196.267" width="17.066" height="170.664" data-original="#000000" class="active-path" data-old_color="#000000" fill="#FFFFFF"/>
	</g>
</g><g>
	<g>
		
			<rect x="433.97" y="426.666" transform="matrix(0.9616 -0.2743 0.2743 0.9616 -101.5421 144.2569)" width="62.119" height="17.066" data-original="#000000" class="active-path" data-old_color="#000000" fill="#FFFFFF"/>
	</g>
</g><g>
	<g>
		<rect x="162.131" y="179.201" width="17.066" height="93.865" data-original="#000000" class="active-path" data-old_color="#000000" fill="#FFFFFF"/>
	</g>
</g><g>
	<g>
		<rect x="162.131" y="290.132" width="17.066" height="17.066" data-original="#000000" class="active-path" data-old_color="#000000" fill="#FFFFFF"/>
	</g>
</g><g>
	<g>
		<rect x="162.131" y="324.265" width="17.066" height="76.799" data-original="#000000" class="active-path" data-old_color="#000000" fill="#FFFFFF"/>
	</g>
</g><g>
	<g>
		<rect x="127.998" y="213.334" width="17.066" height="110.932" data-original="#000000" class="active-path" data-old_color="#000000" fill="#FFFFFF"/>
	</g>
</g><g>
	<g>
		<rect x="127.998" y="341.332" width="17.066" height="25.6" data-original="#000000" class="active-path" data-old_color="#000000" fill="#FFFFFF"/>
	</g>
</g></g> </svg>
