<svg xmlns="http://www.w3.org/2000/svg" xmlns:xlink="http://www.w3.org/1999/xlink" width="132" height="132" viewBox="0 0 132 132">
  <defs>
    <linearGradient id="linear-gradient" x1="0.5" x2="0.5" y2="1" gradientUnits="objectBoundingBox">
      <stop offset="0" stop-color="#7c8be8"/>
      <stop offset="1" stop-color="#6073e4"/>
    </linearGradient>
  </defs>
  <g id="process" transform="translate(-1 -1)">
    <path id="Path_301" data-name="Path 301" d="M7.817,44.53l-3.149,5.3L16.042,61.2l5.3-3.151c.675.313,1.358.6,2.035.852l1.518,5.968H40.979L42.5,58.905c.677-.253,1.36-.537,2.035-.852l5.3,3.151L61.2,49.831l-3.149-5.3c.313-.675.6-1.356.852-2.035l5.963-1.52V24.892l-5.966-1.518c-.253-.679-.539-1.36-.852-2.037l3.149-5.3L49.829,4.664l-5.3,3.151c-.675-.313-1.358-.6-2.035-.852L40.977,1H24.892L23.376,6.966c-.677.253-1.36.537-2.035.852l-5.3-3.151L4.668,16.039l3.149,5.3q-.469,1.016-.852,2.037L1,24.894V40.979L6.966,42.5q.38,1.019.852,2.033ZM5.258,28.2l5.012-1.275.358-1.124a23.323,23.323,0,0,1,1.5-3.583l.543-1.05-2.653-4.46,6.692-6.692,4.46,2.653,1.047-.541a23.373,23.373,0,0,1,3.59-1.5l1.124-.36L28.2,5.258h9.464l1.273,5.012,1.124.36a23.373,23.373,0,0,1,3.59,1.5l1.047.541,4.46-2.653,6.692,6.692L53.2,21.168l.543,1.05a23.411,23.411,0,0,1,1.5,3.583l.358,1.124L60.613,28.2v9.464L55.6,38.941l-.358,1.124a23.432,23.432,0,0,1-1.5,3.583L53.2,44.7l2.653,4.462-6.692,6.692L44.7,53.2l-1.047.541a23.372,23.372,0,0,1-3.59,1.5l-1.124.36-1.271,5.014H28.2L26.932,55.6l-1.124-.36a23.373,23.373,0,0,1-3.59-1.5L21.17,53.2l-4.46,2.653-6.692-6.692L12.671,44.7l-.545-1.05a23.432,23.432,0,0,1-1.5-3.583l-.358-1.124L5.258,37.668Z" transform="translate(0 0)" fill="url(#linear-gradient)"/>
    <path id="Path_302" data-name="Path 302" d="M26.161,45.323A19.161,19.161,0,1,0,7,26.161,19.183,19.183,0,0,0,26.161,45.323Zm0-34.065a14.9,14.9,0,1,1-14.9,14.9A14.921,14.921,0,0,1,26.161,11.258Z" transform="translate(6.774 6.774)" fill="url(#linear-gradient)"/>
    <path id="Path_303" data-name="Path 303" d="M97.516,53H37.4L26.083,58.659a5.575,5.575,0,0,0,0,9.972L37.4,74.29H97.516a10.645,10.645,0,1,0,0-21.29ZM40.032,65.774h51.1v4.258h-51.1Zm51.1-4.258h-51.1V57.258h51.1ZM27.258,63.645a1.31,1.31,0,0,1,.728-1.177l7.788-3.894V68.717l-7.788-3.894A1.31,1.31,0,0,1,27.258,63.645Zm70.258,6.387H95.387V57.258h2.129a6.387,6.387,0,0,1,0,12.774Z" transform="translate(24.839 58.71)" fill="url(#linear-gradient)"/>
    <path id="Path_304" data-name="Path 304" d="M111.71,18.387h-.3a8.475,8.475,0,0,0-16.428,0H69.129v4.258H94.98a8.475,8.475,0,0,0,16.428,0h.3a17.052,17.052,0,0,1,17.032,17.032V52.452A17.052,17.052,0,0,1,111.71,69.484H105.02a8.475,8.475,0,0,0-16.428,0H75.214a8.475,8.475,0,0,0-16.428,0H45.407a8.475,8.475,0,0,0-16.428,0H22.29a21.29,21.29,0,1,0,0,42.581h21.29v-4.258H22.29a17.032,17.032,0,1,1,0-34.065H28.98a8.475,8.475,0,0,0,16.428,0H58.786a8.475,8.475,0,0,0,16.428,0H88.593a8.475,8.475,0,0,0,16.428,0h6.689A21.314,21.314,0,0,0,133,52.452V39.677A21.314,21.314,0,0,0,111.71,18.387Zm-8.516,6.387a4.258,4.258,0,1,1,4.258-4.258A4.262,4.262,0,0,1,103.194,24.774Zm-66,51.1a4.258,4.258,0,1,1,4.258-4.258A4.262,4.262,0,0,1,37.194,75.871Zm29.806,0a4.258,4.258,0,1,1,4.258-4.258A4.262,4.262,0,0,1,67,75.871Zm29.806,0a4.258,4.258,0,1,1,4.258-4.258A4.262,4.262,0,0,1,96.806,75.871Z" transform="translate(0 12.419)" fill="url(#linear-gradient)"/>
    <path id="Path_305" data-name="Path 305" d="M33,22H62.806v4.258H33Z" transform="translate(36.129 23.71)" fill="url(#linear-gradient)"/>
    <path id="Path_306" data-name="Path 306" d="M33,26H62.806v4.258H33Z" transform="translate(36.129 28.226)" fill="url(#linear-gradient)"/>
    <path id="Path_307" data-name="Path 307" d="M41,30h4.258v4.258H41Z" transform="translate(45.161 32.742)" fill="url(#linear-gradient)"/>
    <path id="Path_308" data-name="Path 308" d="M37,30h4.258v4.258H37Z" transform="translate(40.645 32.742)" fill="url(#linear-gradient)"/>
    <path id="Path_309" data-name="Path 309" d="M45,30h4.258v4.258H45Z" transform="translate(49.677 32.742)" fill="url(#linear-gradient)"/>
    <path id="Path_310" data-name="Path 310" d="M33,30h4.258v4.258H33Z" transform="translate(36.129 32.742)" fill="url(#linear-gradient)"/>
    <path id="Path_311" data-name="Path 311" d="M17,48h4.258v4.258H17Z" transform="translate(18.065 53.065)" fill="url(#linear-gradient)"/>
    <path id="Path_312" data-name="Path 312" d="M13,48h4.258v4.258H13Z" transform="translate(13.548 53.065)" fill="url(#linear-gradient)"/>
    <path id="Path_313" data-name="Path 313" d="M5,48H9.258v4.258H5Z" transform="translate(4.516 53.065)" fill="url(#linear-gradient)"/>
    <path id="Path_314" data-name="Path 314" d="M9,48h4.258v4.258H9Z" transform="translate(9.032 53.065)" fill="url(#linear-gradient)"/>
  </g>
</svg>
