<?xml version="1.0" encoding="UTF-8" ?>
<!DOCTYPE svg PUBLIC "-//W3C//DTD SVG 1.1//EN" "http://www.w3.org/Graphics/SVG/1.1/DTD/svg11.dtd">
<svg width="1600pt" height="178pt" viewBox="0 0 1600 178" version="1.1" xmlns="http://www.w3.org/2000/svg">
<g id="#FFFFFF">
<path fill="#FFFFFF" opacity="1.00" d=" M 742.50 9.40 C 758.56 3.21 775.82 0.00 793.05 0.83 C 812.31 1.49 831.42 5.13 849.73 11.09 C 886.45 23.01 922.61 37.53 960.88 43.85 C 985.94 48.14 1011.49 48.71 1036.82 47.40 C 1055.98 46.09 1074.89 42.51 1094.01 40.84 C 1119.18 38.36 1144.39 41.33 1169.35 44.51 C 1218.37 50.74 1267.12 58.91 1315.82 67.23 C 1364.11 75.59 1412.39 84.07 1460.72 92.19 C 1507.04 99.90 1553.40 107.52 1600.00 113.35 L 1600.00 178.00 L 0.00 178.00 L 0.00 159.29 C 46.52 163.35 93.57 161.53 139.61 153.67 C 182.76 146.42 224.47 132.77 265.80 118.73 C 304.43 106.16 342.85 92.88 381.95 81.82 C 415.32 72.38 449.11 64.06 483.51 59.36 C 509.53 55.96 535.75 58.86 561.82 59.94 C 576.85 61.21 591.93 60.49 606.99 60.73 C 622.97 61.04 639.02 58.36 654.03 52.85 C 685.02 41.52 711.80 21.37 742.50 9.40 Z" />
</g>
</svg>
