<?xml version="1.0" encoding="utf-8"?>
<!-- Generator: Adobe Illustrator 17.0.0, SVG Export Plug-In . SVG Version: 6.00 Build 0)  -->
<!DOCTYPE svg PUBLIC "-//W3C//DTD SVG 1.1//EN" "http://www.w3.org/Graphics/SVG/1.1/DTD/svg11.dtd">
<svg version="1.1" id="Ñëîé_1" xmlns="http://www.w3.org/2000/svg" xmlns:xlink="http://www.w3.org/1999/xlink" x="0px" y="0px"
	 width="2225.594px" height="497.842px" viewBox="0 0 2225.594 497.842" enable-background="new 0 0 2225.594 497.842"
	 xml:space="preserve">
<radialGradient id="SVGID_1_" cx="1409.3413" cy="231.846" r="356.2617" fx="1073.3717" fy="113.3267" gradientUnits="userSpaceOnUse">
	<stop  offset="0" style="stop-color:#2B237C"/>
	<stop  offset="1" style="stop-color:#180D5B"/>
</radialGradient>
<rect x="1210.333" y="88.176" display="none" fill="url(#SVGID_1_)" width="600" height="450"/>
<g display="none">
	<g display="inline">
		<path fill="#FFFFFF" d="M1371.62,185.875v-33.824h8.813c1.265,0,2.39,0.064,3.376,0.194c0.986,0.129,1.965,0.384,2.938,0.765
			c0.973,0.381,1.775,0.887,2.408,1.52c0.632,0.632,1.139,1.493,1.52,2.581c0.353,1.007,0.523,2.176,0.51,3.509
			c0,0.095,0,0.19,0,0.286c-0.055,3.944-1.707,6.209-4.958,6.794c1.945,0.258,3.427,1.074,4.447,2.448
			c1.02,1.374,1.543,3.271,1.571,5.692c0,0.082,0,0.157,0,0.225c-0.014,3.305-0.877,5.76-2.591,7.364
			c-1.768,1.632-4.312,2.448-7.63,2.448H1371.62z M1379.087,165.576h1.428c1.604,0,2.696-0.36,3.274-1.081
			c0.578-0.721,0.867-1.863,0.867-3.427c0-2.665-1.462-3.998-4.386-3.998h-1.183V165.576z M1379.087,180.652h1.571
			c1.618,0,2.754-0.394,3.407-1.183c0.653-0.789,0.979-2.033,0.979-3.733c0-1.904-0.333-3.25-1-4.039
			c-0.667-0.789-1.83-1.184-3.489-1.184h-1.469V180.652z"/>
		<path fill="#FFFFFF" d="M1393.654,185.875l6.406-33.824h8.446l6.365,33.824h-6.895l-1.163-7.181h-4.937l-1.143,7.181H1393.654z
			 M1402.528,174.226h3.611l-1.816-13.097L1402.528,174.226z"/>
		<path fill="#FFFFFF" d="M1417.421,185.875v-33.824h5.264l6.957,16.239v-16.239h6.202v33.824h-5.06l-6.977-17.504v17.504H1417.421z
			"/>
		<path fill="#FFFFFF" d="M1439.965,185.875v-33.824h5.264l6.957,16.239v-16.239h6.202v33.824h-5.059l-6.977-17.504v17.504H1439.965
			z"/>
		<path fill="#FFFFFF" d="M1462.508,185.875v-33.824h15.199v5.1h-7.732v8.364h5.896v5.202h-5.896v10.098h7.813v5.06H1462.508z"/>
		<path fill="#FFFFFF" d="M1480.339,185.875v-33.824h9.221c1.428,0,2.693,0.081,3.794,0.245c1.101,0.164,2.135,0.449,3.101,0.857
			c0.965,0.408,1.761,0.945,2.387,1.612s1.115,1.523,1.469,2.57c0.354,1.047,0.531,2.271,0.531,3.672
			c0,2.217-0.299,3.998-0.898,5.345c-0.599,1.347-1.68,2.394-3.244,3.142l4.651,16.382h-7.732l-3.713-15.137h-2.101v15.137H1480.339
			z M1487.806,166.433h1.917c1.523,0,2.598-0.394,3.224-1.183c0.625-0.789,0.938-1.979,0.938-3.57c0-1.563-0.282-2.723-0.846-3.478
			c-0.565-0.755-1.541-1.132-2.928-1.132h-2.305V166.433z"/>
		<path fill="#FFFFFF" d="M1514.512,185.875v-33.824h7.487v13.669h5.202v-13.669h7.486v33.824h-7.486v-14.811h-5.202v14.811
			H1514.512z"/>
		<path fill="#FFFFFF" d="M1538.973,185.875v-33.824h15.198v5.1h-7.732v8.364h5.896v5.202h-5.896v10.098h7.813v5.06H1538.973z"/>
		<path fill="#FFFFFF" d="M1555.192,185.875l6.406-33.824h8.445l6.365,33.824h-6.896l-1.163-7.181h-4.937l-1.143,7.181H1555.192z
			 M1564.067,174.226h3.61l-1.815-13.097L1564.067,174.226z"/>
		<path fill="#FFFFFF" d="M1578.96,185.875v-33.824h8.507c2.217,0,4.056,0.197,5.518,0.592c1.462,0.395,2.628,1.04,3.498,1.938
			c0.87,0.897,1.482,1.996,1.836,3.294c0.354,1.299,0.531,2.928,0.531,4.886v12.199c0,1.972-0.181,3.621-0.541,4.947
			c-0.36,1.326-0.973,2.448-1.836,3.366c-0.864,0.918-2.019,1.581-3.468,1.989c-1.449,0.408-3.262,0.612-5.438,0.612H1578.96z
			 M1586.426,180.693h1.143c0.571,0,1.058-0.038,1.459-0.112c0.401-0.075,0.734-0.207,1-0.398c0.265-0.19,0.476-0.391,0.632-0.602
			c0.156-0.211,0.272-0.517,0.347-0.918c0.075-0.401,0.123-0.782,0.144-1.143c0.019-0.36,0.03-0.847,0.03-1.459v-14.546
			c0-0.857-0.034-1.516-0.103-1.979c-0.067-0.462-0.224-0.884-0.469-1.265c-0.245-0.38-0.608-0.643-1.092-0.786
			c-0.482-0.143-1.139-0.214-1.969-0.214h-1.122V180.693z"/>
		<path fill="#FFFFFF" d="M1602.524,185.875v-33.824h15.198v5.1h-7.733v8.364h5.896v5.202h-5.896v10.098h7.813v5.06H1602.524z"/>
		<path fill="#FFFFFF" d="M1620.355,185.875v-33.824h9.221c1.428,0,2.693,0.081,3.795,0.245c1.102,0.164,2.135,0.449,3.101,0.857
			s1.761,0.945,2.387,1.612c0.625,0.667,1.115,1.523,1.469,2.57c0.354,1.047,0.53,2.271,0.53,3.672c0,2.217-0.299,3.998-0.897,5.345
			c-0.599,1.347-1.68,2.394-3.243,3.142l4.651,16.382h-7.732l-3.713-15.137h-2.102v15.137H1620.355z M1627.821,166.433h1.918
			c1.523,0,2.598-0.394,3.224-1.183c0.625-0.789,0.938-1.979,0.938-3.57c0-1.563-0.282-2.723-0.847-3.478
			c-0.565-0.755-1.54-1.132-2.928-1.132h-2.306V166.433z"/>
	</g>
	<g display="inline">
		<path fill="#FFFFFF" d="M1371.725,208.604v-6.476h1.18v5.66h1.551v0.816H1371.725z"/>
		<path fill="#FFFFFF" d="M1376.405,208.678c-0.498,0-0.868-0.14-1.111-0.42s-0.365-0.68-0.365-1.201v-1.527
			c0-0.521,0.122-0.921,0.365-1.201c0.244-0.28,0.614-0.42,1.111-0.42c0.5,0,0.873,0.14,1.119,0.42
			c0.246,0.28,0.369,0.68,0.369,1.201v1.527c0,0.521-0.123,0.921-0.369,1.201S1376.905,208.678,1376.405,208.678z M1376.409,207.908
			c0.088,0,0.161-0.02,0.217-0.059c0.056-0.039,0.096-0.1,0.121-0.182c0.025-0.082,0.041-0.162,0.049-0.238
			c0.008-0.077,0.012-0.176,0.012-0.299v-1.676c0-0.096-0.002-0.176-0.006-0.24c-0.004-0.064-0.013-0.133-0.027-0.209
			c-0.014-0.076-0.036-0.135-0.064-0.178c-0.029-0.043-0.068-0.079-0.117-0.109s-0.111-0.045-0.184-0.045
			c-0.088,0-0.161,0.02-0.217,0.061c-0.056,0.04-0.096,0.102-0.121,0.184c-0.025,0.082-0.041,0.162-0.049,0.238
			c-0.008,0.077-0.012,0.176-0.012,0.299v1.676c0,0.096,0.002,0.176,0.006,0.24c0.004,0.064,0.013,0.133,0.027,0.207
			c0.014,0.074,0.036,0.133,0.064,0.176c0.029,0.043,0.068,0.08,0.117,0.109S1376.336,207.908,1376.409,207.908z"/>
		<path fill="#FFFFFF" d="M1378.659,208.604v-4.625h1.094v0.711c0.154-0.274,0.309-0.47,0.467-0.59
			c0.158-0.12,0.326-0.18,0.506-0.18c0.055,0,0.109,0.006,0.164,0.02v1.082c-0.123-0.047-0.249-0.07-0.379-0.07
			c-0.156,0.005-0.293,0.044-0.412,0.117c-0.119,0.073-0.234,0.194-0.346,0.363v3.172H1378.659z"/>
		<path fill="#FFFFFF" d="M1382.807,208.678c-0.529,0-0.909-0.146-1.141-0.438c-0.232-0.292-0.348-0.723-0.348-1.293v-1.309
			c0-0.57,0.117-1.001,0.352-1.293c0.234-0.291,0.612-0.438,1.133-0.438c0.276,0,0.508,0.04,0.697,0.121
			c0.189,0.081,0.336,0.203,0.441,0.367c0.105,0.164,0.18,0.353,0.225,0.568c0.044,0.215,0.066,0.473,0.066,0.775v0.605h-1.828
			v0.695c0,0.096,0,0.171,0.002,0.225c0.002,0.053,0.006,0.118,0.014,0.193c0.008,0.076,0.02,0.134,0.037,0.176
			c0.017,0.041,0.04,0.084,0.068,0.127c0.029,0.043,0.066,0.074,0.113,0.092c0.047,0.018,0.101,0.027,0.164,0.027
			c0.146,0,0.248-0.051,0.305-0.154c0.057-0.103,0.086-0.252,0.086-0.447v-0.266h1.035v0.184c0,0.479-0.119,0.846-0.357,1.1
			C1383.633,208.551,1383.278,208.678,1382.807,208.678z M1382.405,205.799h0.789v-0.441c0-0.234-0.029-0.402-0.088-0.504
			c-0.059-0.101-0.162-0.152-0.311-0.152c-0.151,0-0.254,0.057-0.309,0.172c-0.055,0.115-0.082,0.323-0.082,0.625V205.799z"/>
		<path fill="#FFFFFF" d="M1384.979,208.604v-4.625h1.039v0.406c0.31-0.326,0.676-0.488,1.098-0.488c0.385,0,0.642,0.189,0.77,0.566
			c0.326-0.377,0.715-0.566,1.168-0.566c0.258,0,0.465,0.094,0.621,0.281s0.234,0.459,0.234,0.816v3.609h-1.039v-3.516
			c0-0.169-0.028-0.289-0.084-0.359c-0.056-0.07-0.139-0.104-0.248-0.101c-0.19,0.005-0.381,0.095-0.574,0.27
			c0,0.01,0,0.026,0.002,0.047c0.002,0.021,0.002,0.038,0.002,0.051v3.609h-1.035v-3.516c0-0.169-0.028-0.289-0.084-0.359
			c-0.056-0.07-0.14-0.104-0.252-0.101c-0.182,0.005-0.375,0.096-0.578,0.273v3.703H1384.979z"/>
		<path fill="#FFFFFF" d="M1392.705,203.248v-0.922h1.098v0.922H1392.705z M1392.705,208.604v-4.625h1.094v4.625H1392.705z"/>
		<path fill="#FFFFFF" d="M1394.659,210.127v-6.148h1.094v0.356c0.287-0.287,0.598-0.428,0.934-0.426
			c0.164,0.003,0.309,0.04,0.436,0.113c0.126,0.073,0.225,0.164,0.297,0.271c0.072,0.108,0.13,0.236,0.176,0.383
			c0.046,0.147,0.076,0.284,0.092,0.41c0.016,0.126,0.024,0.254,0.024,0.385v1.516c0,0.234-0.02,0.45-0.059,0.646
			c-0.039,0.197-0.1,0.375-0.184,0.535c-0.083,0.16-0.197,0.285-0.342,0.375c-0.145,0.09-0.315,0.135-0.51,0.135
			c-0.286,0-0.574-0.139-0.863-0.418v1.867H1394.659z M1396.233,207.893c0.081,0,0.148-0.023,0.203-0.068
			c0.055-0.045,0.094-0.112,0.119-0.199c0.025-0.087,0.042-0.177,0.051-0.269c0.009-0.092,0.014-0.204,0.014-0.334v-1.594
			c0-0.107-0.006-0.203-0.017-0.287c-0.012-0.084-0.032-0.165-0.061-0.242c-0.029-0.077-0.072-0.135-0.129-0.176
			c-0.057-0.041-0.127-0.059-0.207-0.057c-0.143,0.003-0.295,0.064-0.453,0.184v2.898
			C1395.909,207.844,1396.069,207.893,1396.233,207.893z"/>
		<path fill="#FFFFFF" d="M1399.67,208.678c-0.383,0-0.697-0.107-0.941-0.32c-0.245-0.213-0.413-0.521-0.504-0.922l0.828-0.301
			c0.057,0.255,0.138,0.449,0.242,0.58c0.104,0.131,0.234,0.195,0.391,0.189c0.115-0.002,0.209-0.043,0.283-0.123
			c0.074-0.08,0.109-0.176,0.104-0.291c-0.01-0.167-0.163-0.377-0.457-0.629l-0.621-0.531c-0.448-0.385-0.667-0.788-0.656-1.207
			c0.008-0.37,0.133-0.665,0.377-0.885c0.244-0.22,0.554-0.33,0.932-0.33c0.362,0,0.656,0.109,0.883,0.328
			c0.227,0.219,0.373,0.512,0.441,0.879l-0.719,0.301c-0.099-0.479-0.284-0.72-0.555-0.723c-0.115-0.003-0.207,0.033-0.275,0.105
			c-0.069,0.073-0.104,0.16-0.104,0.262c-0.002,0.141,0.126,0.324,0.387,0.551l0.633,0.574c0.107,0.094,0.195,0.178,0.266,0.252
			c0.07,0.074,0.144,0.165,0.221,0.272c0.077,0.107,0.134,0.221,0.172,0.344c0.038,0.122,0.057,0.254,0.057,0.395
			c0,0.391-0.129,0.693-0.389,0.908C1400.405,208.57,1400.074,208.678,1399.67,208.678z"/>
		<path fill="#FFFFFF" d="M1402.369,208.674c-0.263,0-0.455-0.096-0.576-0.289s-0.182-0.43-0.182-0.711v-3.695h1.09v3.473
			c0,0.143,0.022,0.25,0.066,0.32c0.044,0.07,0.126,0.104,0.246,0.102c0.127,0,0.284-0.065,0.469-0.195v-3.699h1.09v4.625h-1.09
			v-0.434C1403.115,208.506,1402.744,208.674,1402.369,208.674z"/>
		<path fill="#FFFFFF" d="M1405.416,208.604v-4.625h1.039v0.406c0.31-0.326,0.676-0.488,1.098-0.488c0.385,0,0.642,0.189,0.77,0.566
			c0.326-0.377,0.715-0.566,1.168-0.566c0.258,0,0.465,0.094,0.621,0.281s0.234,0.459,0.234,0.816v3.609h-1.039v-3.516
			c0-0.169-0.028-0.289-0.084-0.359c-0.056-0.07-0.139-0.104-0.248-0.101c-0.19,0.005-0.381,0.095-0.574,0.27
			c0,0.01,0,0.026,0.002,0.047c0.002,0.021,0.002,0.038,0.002,0.051v3.609h-1.035v-3.516c0-0.169-0.028-0.289-0.084-0.359
			c-0.056-0.07-0.14-0.104-0.252-0.101c-0.182,0.005-0.375,0.096-0.578,0.273v3.703H1405.416z"/>
		<path fill="#FFFFFF" d="M1414.159,208.678c-0.377,0-0.66-0.134-0.848-0.402s-0.281-0.694-0.281-1.277v-1.344
			c0-0.247,0.019-0.471,0.057-0.672c0.038-0.201,0.098-0.384,0.18-0.551c0.082-0.166,0.197-0.296,0.346-0.387
			s0.326-0.137,0.531-0.137c0.292,0,0.565,0.119,0.82,0.355v-2.137h1.094v6.476h-1.094v-0.316
			C1414.716,208.545,1414.448,208.675,1414.159,208.678z M1414.541,207.897c0.133,0,0.273-0.042,0.422-0.125v-2.953
			c-0.149-0.094-0.291-0.141-0.426-0.141c-0.146,0-0.25,0.066-0.315,0.199c-0.064,0.133-0.096,0.302-0.096,0.508v1.695
			c0,0.167,0.009,0.305,0.027,0.414c0.018,0.109,0.059,0.204,0.123,0.283C1414.342,207.857,1414.43,207.897,1414.541,207.897z"/>
		<path fill="#FFFFFF" d="M1418.284,208.678c-0.498,0-0.868-0.14-1.111-0.42s-0.365-0.68-0.365-1.201v-1.527
			c0-0.521,0.122-0.921,0.365-1.201c0.244-0.28,0.614-0.42,1.111-0.42c0.5,0,0.873,0.14,1.119,0.42
			c0.246,0.28,0.369,0.68,0.369,1.201v1.527c0,0.521-0.123,0.921-0.369,1.201S1418.784,208.678,1418.284,208.678z M1418.287,207.908
			c0.088,0,0.161-0.02,0.217-0.059c0.056-0.039,0.096-0.1,0.121-0.182c0.025-0.082,0.041-0.162,0.049-0.238
			c0.008-0.077,0.012-0.176,0.012-0.299v-1.676c0-0.096-0.002-0.176-0.006-0.24c-0.004-0.064-0.013-0.133-0.027-0.209
			c-0.014-0.076-0.036-0.135-0.064-0.178c-0.029-0.043-0.068-0.079-0.117-0.109s-0.111-0.045-0.184-0.045
			c-0.089,0-0.161,0.02-0.217,0.061s-0.096,0.102-0.121,0.184c-0.025,0.082-0.041,0.162-0.049,0.238
			c-0.008,0.077-0.012,0.176-0.012,0.299v1.676c0,0.096,0.002,0.176,0.006,0.24c0.004,0.064,0.013,0.133,0.027,0.207
			c0.014,0.074,0.036,0.133,0.064,0.176c0.029,0.043,0.068,0.08,0.117,0.109C1418.153,207.893,1418.215,207.908,1418.287,207.908z"
			/>
		<path fill="#FFFFFF" d="M1420.592,208.604v-6.476h1.094v6.476H1420.592z"/>
		<path fill="#FFFFFF" d="M1423.936,208.678c-0.497,0-0.868-0.14-1.111-0.42s-0.365-0.68-0.365-1.201v-1.527
			c0-0.521,0.122-0.921,0.365-1.201c0.244-0.28,0.614-0.42,1.111-0.42c0.5,0,0.873,0.14,1.119,0.42
			c0.246,0.28,0.369,0.68,0.369,1.201v1.527c0,0.521-0.123,0.921-0.369,1.201S1424.436,208.678,1423.936,208.678z M1423.94,207.908
			c0.088,0,0.161-0.02,0.217-0.059c0.056-0.039,0.096-0.1,0.121-0.182c0.025-0.082,0.041-0.162,0.049-0.238
			c0.008-0.077,0.012-0.176,0.012-0.299v-1.676c0-0.096-0.002-0.176-0.006-0.24c-0.004-0.064-0.013-0.133-0.027-0.209
			c-0.014-0.076-0.036-0.135-0.065-0.178c-0.029-0.043-0.068-0.079-0.117-0.109c-0.049-0.03-0.111-0.045-0.184-0.045
			c-0.088,0-0.161,0.02-0.217,0.061c-0.056,0.04-0.096,0.102-0.121,0.184c-0.025,0.082-0.041,0.162-0.049,0.238
			c-0.008,0.077-0.012,0.176-0.012,0.299v1.676c0,0.096,0.002,0.176,0.006,0.24s0.013,0.133,0.027,0.207
			c0.014,0.074,0.036,0.133,0.064,0.176c0.029,0.043,0.068,0.08,0.117,0.109C1423.806,207.893,1423.867,207.908,1423.94,207.908z"/>
		<path fill="#FFFFFF" d="M1426.19,208.604v-4.625h1.094v0.711c0.154-0.274,0.309-0.47,0.467-0.59c0.158-0.12,0.326-0.18,0.506-0.18
			c0.055,0,0.109,0.006,0.164,0.02v1.082c-0.123-0.047-0.249-0.07-0.379-0.07c-0.156,0.005-0.293,0.044-0.412,0.117
			c-0.119,0.073-0.234,0.194-0.346,0.363v3.172H1426.19z"/>
		<path fill="#FFFFFF" d="M1432.1,208.678c-0.383,0-0.697-0.107-0.941-0.32c-0.245-0.213-0.413-0.521-0.504-0.922l0.828-0.301
			c0.057,0.255,0.138,0.449,0.242,0.58c0.104,0.131,0.234,0.195,0.391,0.189c0.115-0.002,0.209-0.043,0.283-0.123
			c0.074-0.08,0.109-0.176,0.104-0.291c-0.01-0.167-0.163-0.377-0.457-0.629l-0.621-0.531c-0.448-0.385-0.667-0.788-0.656-1.207
			c0.008-0.37,0.133-0.665,0.377-0.885c0.244-0.22,0.554-0.33,0.932-0.33c0.362,0,0.656,0.109,0.883,0.328
			c0.226,0.219,0.374,0.512,0.441,0.879l-0.719,0.301c-0.099-0.479-0.284-0.72-0.555-0.723c-0.115-0.003-0.206,0.033-0.275,0.105
			c-0.069,0.073-0.104,0.16-0.104,0.262c-0.002,0.141,0.127,0.324,0.387,0.551l0.633,0.574c0.107,0.094,0.195,0.178,0.266,0.252
			c0.07,0.074,0.144,0.165,0.221,0.272c0.077,0.107,0.134,0.221,0.172,0.344c0.038,0.122,0.057,0.254,0.057,0.395
			c0,0.391-0.129,0.693-0.389,0.908C1432.835,208.57,1432.504,208.678,1432.1,208.678z"/>
		<path fill="#FFFFFF" d="M1434.108,203.248v-0.922h1.098v0.922H1434.108z M1434.108,208.604v-4.625h1.094v4.625H1434.108z"/>
		<path fill="#FFFFFF" d="M1437.35,208.666c-0.211-0.002-0.39-0.038-0.537-0.105c-0.147-0.068-0.26-0.165-0.34-0.291
			c-0.079-0.126-0.137-0.268-0.172-0.424c-0.035-0.156-0.053-0.338-0.053-0.547v-2.598h-0.457v-0.723h0.457v-1.359h1.098v1.359
			h0.703v0.723h-0.703v2.668c0,0.151,0.033,0.26,0.1,0.326c0.066,0.066,0.172,0.101,0.318,0.104
			c0.101,0.002,0.212-0.005,0.332-0.023v0.836C1437.786,208.653,1437.537,208.671,1437.35,208.666z"/>
		<path fill="#FFFFFF" d="M1441.561,208.678c-0.292-0.003-0.531-0.117-0.717-0.342c-0.186-0.225-0.279-0.48-0.279-0.764
			c0-0.268,0.045-0.503,0.133-0.703c0.088-0.201,0.234-0.373,0.436-0.516c0.202-0.143,0.369-0.247,0.502-0.313
			c0.133-0.065,0.337-0.151,0.613-0.258c0.078-0.031,0.137-0.055,0.176-0.07v-0.387c0-0.208-0.024-0.361-0.072-0.457
			c-0.048-0.096-0.146-0.145-0.295-0.145c-0.242,0-0.366,0.169-0.371,0.508l-0.016,0.289l-1.047-0.039c0-0.016,0-0.044,0.002-0.086
			c0.001-0.042,0.002-0.069,0.002-0.082c0.034-0.484,0.178-0.84,0.432-1.066c0.254-0.227,0.617-0.34,1.088-0.34
			c0.455,0,0.793,0.124,1.014,0.371c0.22,0.248,0.33,0.598,0.33,1.051v2.113c0,0.354,0.029,0.741,0.086,1.16h-0.988
			c-0.06-0.302-0.098-0.529-0.113-0.68c-0.065,0.213-0.174,0.393-0.326,0.537C1441.996,208.606,1441.801,208.678,1441.561,208.678z
			 M1441.979,207.83c0.083,0,0.166-0.031,0.248-0.094c0.082-0.063,0.148-0.126,0.197-0.191v-1.273
			c-0.542,0.299-0.813,0.639-0.813,1.019c0,0.167,0.032,0.298,0.096,0.395C1441.771,207.782,1441.862,207.83,1441.979,207.83z"/>
		<path fill="#FFFFFF" d="M1444.291,208.604v-4.625h1.039v0.406c0.31-0.326,0.676-0.488,1.098-0.488c0.385,0,0.642,0.189,0.77,0.566
			c0.326-0.377,0.715-0.566,1.168-0.566c0.258,0,0.465,0.094,0.621,0.281s0.234,0.459,0.234,0.816v3.609h-1.039v-3.516
			c0-0.169-0.028-0.289-0.084-0.359c-0.056-0.07-0.139-0.104-0.248-0.101c-0.19,0.005-0.381,0.095-0.574,0.27
			c0,0.01,0,0.026,0.002,0.047c0.002,0.021,0.002,0.038,0.002,0.051v3.609h-1.035v-3.516c0-0.169-0.028-0.289-0.084-0.359
			c-0.056-0.07-0.14-0.104-0.252-0.101c-0.182,0.005-0.375,0.096-0.578,0.273v3.703H1444.291z"/>
		<path fill="#FFFFFF" d="M1451.432,208.678c-0.529,0-0.909-0.146-1.141-0.438c-0.232-0.292-0.348-0.723-0.348-1.293v-1.309
			c0-0.57,0.117-1.001,0.352-1.293c0.234-0.291,0.612-0.438,1.133-0.438c0.276,0,0.508,0.04,0.697,0.121
			c0.189,0.081,0.336,0.203,0.441,0.367c0.105,0.164,0.18,0.353,0.225,0.568c0.044,0.215,0.066,0.473,0.066,0.775v0.605h-1.828
			v0.695c0,0.096,0,0.171,0.002,0.225c0.002,0.053,0.006,0.118,0.014,0.193c0.008,0.076,0.02,0.134,0.037,0.176
			c0.017,0.041,0.04,0.084,0.068,0.127c0.029,0.043,0.066,0.074,0.113,0.092c0.047,0.018,0.101,0.027,0.164,0.027
			c0.146,0,0.248-0.051,0.305-0.154c0.057-0.103,0.086-0.252,0.086-0.447v-0.266h1.035v0.184c0,0.479-0.119,0.846-0.357,1.1
			C1452.258,208.551,1451.903,208.678,1451.432,208.678z M1451.03,205.799h0.789v-0.441c0-0.234-0.029-0.402-0.088-0.504
			c-0.059-0.101-0.162-0.152-0.311-0.152c-0.151,0-0.254,0.057-0.309,0.172c-0.055,0.115-0.082,0.323-0.082,0.625V205.799z"/>
		<path fill="#FFFFFF" d="M1454.893,208.666c-0.211-0.002-0.39-0.038-0.537-0.105c-0.147-0.068-0.26-0.165-0.34-0.291
			c-0.08-0.126-0.137-0.268-0.172-0.424c-0.035-0.156-0.053-0.338-0.053-0.547v-2.598h-0.457v-0.723h0.457v-1.359h1.098v1.359h0.703
			v0.723h-0.703v2.668c0,0.151,0.033,0.26,0.1,0.326c0.066,0.066,0.172,0.101,0.318,0.104c0.102,0.002,0.212-0.005,0.332-0.023
			v0.836C1455.329,208.653,1455.08,208.671,1454.893,208.666z"/>
		<path fill="#FFFFFF" d="M1456.327,209.701l-0.117-0.41c0.154-0.039,0.279-0.118,0.377-0.236c0.098-0.119,0.147-0.269,0.147-0.451
			h-0.574v-1.059h1.074v0.984C1457.233,209.191,1456.931,209.582,1456.327,209.701z"/>
		<path fill="#FFFFFF" d="M1461.28,208.678c-0.523,0-0.9-0.147-1.129-0.441c-0.229-0.294-0.344-0.72-0.344-1.277v-1.34
			c0-0.557,0.115-0.982,0.344-1.273c0.229-0.291,0.605-0.438,1.129-0.438c0.492,0,0.85,0.116,1.072,0.348
			c0.223,0.232,0.334,0.591,0.334,1.078v0.375h-1.019v-0.395c0-0.234-0.028-0.398-0.084-0.49c-0.056-0.092-0.153-0.139-0.291-0.139
			c-0.154,0-0.257,0.055-0.311,0.164c-0.053,0.109-0.08,0.313-0.08,0.609v1.688c0,0.294,0.029,0.493,0.088,0.596
			c0.059,0.103,0.16,0.154,0.303,0.154c0.146,0,0.245-0.05,0.297-0.15c0.052-0.1,0.078-0.252,0.078-0.455v-0.496h1.019v0.438
			c0,0.479-0.114,0.84-0.342,1.082C1462.116,208.557,1461.761,208.678,1461.28,208.678z"/>
		<path fill="#FFFFFF" d="M1464.795,208.678c-0.498,0-0.868-0.14-1.111-0.42c-0.244-0.28-0.365-0.68-0.365-1.201v-1.527
			c0-0.521,0.121-0.921,0.365-1.201c0.244-0.28,0.614-0.42,1.111-0.42c0.5,0,0.873,0.14,1.119,0.42
			c0.246,0.28,0.369,0.68,0.369,1.201v1.527c0,0.521-0.123,0.921-0.369,1.201C1465.668,208.538,1465.295,208.678,1464.795,208.678z
			 M1464.799,207.908c0.088,0,0.161-0.02,0.217-0.059c0.056-0.039,0.096-0.1,0.121-0.182c0.025-0.082,0.041-0.162,0.049-0.238
			c0.008-0.077,0.012-0.176,0.012-0.299v-1.676c0-0.096-0.002-0.176-0.006-0.24c-0.004-0.064-0.013-0.133-0.027-0.209
			s-0.036-0.135-0.064-0.178c-0.029-0.043-0.068-0.079-0.117-0.109c-0.049-0.03-0.111-0.045-0.184-0.045
			c-0.089,0-0.161,0.02-0.217,0.061c-0.056,0.04-0.096,0.102-0.121,0.184c-0.025,0.082-0.041,0.162-0.049,0.238
			c-0.008,0.077-0.012,0.176-0.012,0.299v1.676c0,0.096,0.002,0.176,0.006,0.24s0.013,0.133,0.027,0.207
			c0.014,0.074,0.036,0.133,0.064,0.176c0.029,0.043,0.068,0.08,0.117,0.109C1464.665,207.893,1464.726,207.908,1464.799,207.908z"
			/>
		<path fill="#FFFFFF" d="M1467.034,208.604v-4.625h1.094v0.453c0.373-0.349,0.749-0.523,1.129-0.523
			c0.263,0,0.455,0.096,0.576,0.289c0.121,0.193,0.182,0.43,0.182,0.711v3.695h-1.094v-3.453c0-0.146-0.021-0.254-0.063-0.324
			c-0.042-0.07-0.123-0.104-0.242-0.102c-0.135,0.003-0.298,0.073-0.488,0.211v3.668H1467.034z"/>
		<path fill="#FFFFFF" d="M1472.022,208.678c-0.383,0-0.697-0.107-0.941-0.32c-0.245-0.213-0.413-0.521-0.504-0.922l0.828-0.301
			c0.057,0.255,0.138,0.449,0.242,0.58c0.104,0.131,0.234,0.195,0.391,0.189c0.115-0.002,0.209-0.043,0.283-0.123
			c0.074-0.08,0.109-0.176,0.104-0.291c-0.01-0.167-0.163-0.377-0.457-0.629l-0.621-0.531c-0.448-0.385-0.667-0.788-0.656-1.207
			c0.008-0.37,0.133-0.665,0.377-0.885c0.244-0.22,0.554-0.33,0.932-0.33c0.362,0,0.656,0.109,0.883,0.328
			c0.227,0.219,0.374,0.512,0.441,0.879l-0.719,0.301c-0.099-0.479-0.284-0.72-0.555-0.723c-0.115-0.003-0.207,0.033-0.276,0.105
			c-0.069,0.073-0.103,0.16-0.103,0.262c-0.002,0.141,0.126,0.324,0.387,0.551l0.633,0.574c0.107,0.094,0.195,0.178,0.266,0.252
			c0.07,0.074,0.144,0.165,0.221,0.272c0.077,0.107,0.134,0.221,0.172,0.344c0.038,0.122,0.057,0.254,0.057,0.395
			c0,0.391-0.129,0.693-0.389,0.908C1472.757,208.57,1472.426,208.678,1472.022,208.678z"/>
		<path fill="#FFFFFF" d="M1475.397,208.678c-0.529,0-0.909-0.146-1.141-0.438c-0.232-0.292-0.348-0.723-0.348-1.293v-1.309
			c0-0.57,0.117-1.001,0.352-1.293c0.234-0.291,0.612-0.438,1.133-0.438c0.276,0,0.508,0.04,0.697,0.121
			c0.189,0.081,0.336,0.203,0.441,0.367c0.106,0.164,0.18,0.353,0.225,0.568c0.044,0.215,0.066,0.473,0.066,0.775v0.605h-1.828
			v0.695c0,0.096,0,0.171,0.002,0.225c0.001,0.053,0.006,0.118,0.014,0.193c0.008,0.076,0.02,0.134,0.037,0.176
			c0.017,0.041,0.04,0.084,0.068,0.127c0.029,0.043,0.066,0.074,0.113,0.092c0.047,0.018,0.102,0.027,0.164,0.027
			c0.146,0,0.247-0.051,0.305-0.154c0.057-0.103,0.086-0.252,0.086-0.447v-0.266h1.035v0.184c0,0.479-0.119,0.846-0.358,1.1
			C1476.223,208.551,1475.868,208.678,1475.397,208.678z M1474.994,205.799h0.789v-0.441c0-0.234-0.029-0.402-0.088-0.504
			c-0.059-0.101-0.162-0.152-0.311-0.152c-0.151,0-0.254,0.057-0.309,0.172c-0.055,0.115-0.082,0.323-0.082,0.625V205.799z"/>
		<path fill="#FFFFFF" d="M1478.955,208.678c-0.524,0-0.9-0.147-1.129-0.441c-0.229-0.294-0.344-0.72-0.344-1.277v-1.34
			c0-0.557,0.115-0.982,0.344-1.273c0.229-0.291,0.605-0.438,1.129-0.438c0.492,0,0.85,0.116,1.072,0.348
			c0.223,0.232,0.334,0.591,0.334,1.078v0.375h-1.02v-0.395c0-0.234-0.028-0.398-0.084-0.49c-0.056-0.092-0.153-0.139-0.291-0.139
			c-0.154,0-0.257,0.055-0.311,0.164c-0.053,0.109-0.08,0.313-0.08,0.609v1.688c0,0.294,0.029,0.493,0.088,0.596
			c0.058,0.103,0.16,0.154,0.303,0.154c0.146,0,0.245-0.05,0.297-0.15s0.078-0.252,0.078-0.455v-0.496h1.02v0.438
			c0,0.479-0.114,0.84-0.342,1.082C1479.792,208.557,1479.437,208.678,1478.955,208.678z"/>
		<path fill="#FFFFFF" d="M1482.369,208.666c-0.211-0.002-0.39-0.038-0.537-0.105c-0.147-0.068-0.26-0.165-0.34-0.291
			c-0.08-0.126-0.137-0.268-0.172-0.424c-0.035-0.156-0.053-0.338-0.053-0.547v-2.598h-0.457v-0.723h0.457v-1.359h1.098v1.359h0.703
			v0.723h-0.703v2.668c0,0.151,0.033,0.26,0.1,0.326c0.066,0.066,0.172,0.101,0.318,0.104c0.102,0.002,0.212-0.005,0.332-0.023
			v0.836C1482.806,208.653,1482.557,208.671,1482.369,208.666z"/>
		<path fill="#FFFFFF" d="M1485.139,208.678c-0.529,0-0.909-0.146-1.141-0.438c-0.232-0.292-0.348-0.723-0.348-1.293v-1.309
			c0-0.57,0.117-1.001,0.351-1.293c0.234-0.291,0.612-0.438,1.133-0.438c0.276,0,0.508,0.04,0.697,0.121
			c0.189,0.081,0.336,0.203,0.441,0.367c0.106,0.164,0.18,0.353,0.225,0.568c0.045,0.215,0.066,0.473,0.066,0.775v0.605h-1.828
			v0.695c0,0.096,0,0.171,0.002,0.225c0.001,0.053,0.006,0.118,0.014,0.193c0.008,0.076,0.02,0.134,0.037,0.176
			c0.017,0.041,0.04,0.084,0.068,0.127c0.029,0.043,0.066,0.074,0.113,0.092c0.047,0.018,0.102,0.027,0.164,0.027
			c0.146,0,0.248-0.051,0.305-0.154c0.057-0.103,0.086-0.252,0.086-0.447v-0.266h1.035v0.184c0,0.479-0.119,0.846-0.357,1.1
			C1485.965,208.551,1485.61,208.678,1485.139,208.678z M1484.737,205.799h0.789v-0.441c0-0.234-0.029-0.402-0.088-0.504
			c-0.059-0.101-0.162-0.152-0.311-0.152c-0.151,0-0.254,0.057-0.308,0.172c-0.055,0.115-0.082,0.323-0.082,0.625V205.799z"/>
		<path fill="#FFFFFF" d="M1488.6,208.666c-0.211-0.002-0.39-0.038-0.537-0.105c-0.147-0.068-0.26-0.165-0.34-0.291
			c-0.079-0.126-0.137-0.268-0.172-0.424c-0.035-0.156-0.053-0.338-0.053-0.547v-2.598h-0.457v-0.723h0.457v-1.359h1.098v1.359
			h0.703v0.723h-0.703v2.668c0,0.151,0.033,0.26,0.1,0.326c0.066,0.066,0.172,0.101,0.318,0.104
			c0.101,0.002,0.212-0.005,0.332-0.023v0.836C1489.036,208.653,1488.787,208.671,1488.6,208.666z"/>
		<path fill="#FFFFFF" d="M1490.694,208.674c-0.263,0-0.455-0.096-0.576-0.289s-0.182-0.43-0.182-0.711v-3.695h1.09v3.473
			c0,0.143,0.022,0.25,0.066,0.32c0.044,0.07,0.126,0.104,0.246,0.102c0.127,0,0.284-0.065,0.469-0.195v-3.699h1.09v4.625h-1.09
			v-0.434C1491.44,208.506,1491.069,208.674,1490.694,208.674z"/>
		<path fill="#FFFFFF" d="M1493.756,208.604v-4.625h1.094v0.711c0.154-0.274,0.309-0.47,0.467-0.59
			c0.158-0.12,0.326-0.18,0.506-0.18c0.055,0,0.109,0.006,0.164,0.02v1.082c-0.123-0.047-0.249-0.07-0.379-0.07
			c-0.156,0.005-0.293,0.044-0.412,0.117c-0.119,0.073-0.234,0.194-0.346,0.363v3.172H1493.756z"/>
		<path fill="#FFFFFF" d="M1372.549,217.607c-0.292-0.003-0.531-0.116-0.717-0.342c-0.186-0.226-0.279-0.48-0.279-0.764
			c0-0.269,0.045-0.503,0.133-0.703c0.089-0.2,0.234-0.372,0.436-0.516c0.202-0.144,0.369-0.247,0.502-0.313
			c0.133-0.065,0.337-0.151,0.613-0.258c0.078-0.031,0.137-0.055,0.176-0.07v-0.387c0-0.208-0.024-0.36-0.072-0.457
			c-0.048-0.097-0.146-0.145-0.295-0.145c-0.242,0-0.366,0.169-0.371,0.508l-0.016,0.289l-1.047-0.039c0-0.016,0-0.044,0.002-0.086
			c0.001-0.042,0.002-0.069,0.002-0.082c0.034-0.484,0.178-0.84,0.432-1.066c0.254-0.227,0.617-0.34,1.088-0.34
			c0.455,0,0.793,0.124,1.014,0.371c0.22,0.247,0.33,0.598,0.33,1.051v2.113c0,0.355,0.029,0.741,0.086,1.16h-0.988
			c-0.06-0.302-0.098-0.528-0.113-0.68c-0.065,0.214-0.174,0.393-0.326,0.537C1372.985,217.535,1372.789,217.607,1372.549,217.607z
			 M1372.967,216.759c0.083,0,0.166-0.031,0.248-0.094c0.082-0.063,0.148-0.126,0.197-0.191v-1.273
			c-0.542,0.3-0.813,0.64-0.813,1.02c0,0.167,0.032,0.298,0.096,0.395C1372.76,216.711,1372.85,216.759,1372.967,216.759z"/>
		<path fill="#FFFFFF" d="M1376.33,217.607c-0.378,0-0.66-0.134-0.848-0.402c-0.188-0.268-0.281-0.694-0.281-1.277v-1.344
			c0-0.247,0.019-0.472,0.057-0.672s0.098-0.384,0.18-0.551c0.082-0.167,0.197-0.296,0.346-0.387
			c0.148-0.091,0.326-0.137,0.531-0.137c0.292,0,0.565,0.118,0.82,0.355v-2.137h1.094v6.477h-1.094v-0.316
			C1376.888,217.474,1376.619,217.604,1376.33,217.607z M1376.713,216.826c0.133,0,0.273-0.042,0.422-0.125v-2.953
			c-0.148-0.094-0.291-0.141-0.426-0.141c-0.146,0-0.25,0.066-0.315,0.199c-0.064,0.133-0.096,0.302-0.096,0.508v1.695
			c0,0.167,0.009,0.305,0.027,0.414c0.018,0.109,0.059,0.204,0.123,0.283C1376.514,216.786,1376.601,216.826,1376.713,216.826z"/>
		<path fill="#FFFFFF" d="M1379.1,212.177v-0.922h1.098v0.922H1379.1z M1379.1,217.533v-4.625h1.094v4.625H1379.1z"/>
		<path fill="#FFFFFF" d="M1381.053,219.056v-6.148h1.094v0.355c0.287-0.286,0.598-0.429,0.934-0.426
			c0.164,0.003,0.309,0.04,0.436,0.113c0.126,0.073,0.225,0.163,0.297,0.271c0.072,0.108,0.13,0.235,0.176,0.383
			c0.045,0.147,0.076,0.284,0.092,0.41c0.016,0.126,0.023,0.255,0.023,0.385v1.516c0,0.234-0.02,0.45-0.059,0.646
			c-0.039,0.196-0.1,0.375-0.184,0.535c-0.084,0.16-0.197,0.285-0.342,0.375c-0.144,0.09-0.314,0.135-0.51,0.135
			c-0.287,0-0.574-0.14-0.863-0.418v1.867H1381.053z M1382.627,216.822c0.081,0,0.149-0.023,0.203-0.068s0.094-0.112,0.119-0.199
			c0.025-0.087,0.042-0.177,0.051-0.27c0.009-0.093,0.014-0.204,0.014-0.334v-1.594c0-0.107-0.006-0.202-0.018-0.287
			c-0.012-0.085-0.032-0.165-0.061-0.242c-0.029-0.077-0.072-0.136-0.129-0.176c-0.057-0.04-0.126-0.06-0.207-0.057
			c-0.143,0.003-0.294,0.063-0.453,0.184v2.898C1382.303,216.774,1382.463,216.822,1382.627,216.822z"/>
		<path fill="#FFFFFF" d="M1384.901,212.177v-0.922h1.098v0.922H1384.901z M1384.901,217.533v-4.625h1.094v4.625H1384.901z"/>
		<path fill="#FFFFFF" d="M1388.053,217.607c-0.383,0-0.697-0.107-0.941-0.32c-0.245-0.214-0.413-0.52-0.504-0.922l0.828-0.301
			c0.057,0.255,0.138,0.448,0.242,0.58c0.104,0.132,0.234,0.194,0.391,0.189c0.115-0.003,0.209-0.044,0.283-0.123
			c0.074-0.079,0.109-0.177,0.104-0.291c-0.01-0.167-0.163-0.376-0.457-0.629l-0.621-0.531c-0.448-0.386-0.667-0.788-0.656-1.207
			c0.008-0.37,0.133-0.665,0.377-0.885c0.244-0.22,0.554-0.33,0.932-0.33c0.362,0,0.656,0.109,0.883,0.328
			c0.227,0.219,0.373,0.512,0.441,0.879l-0.719,0.301c-0.099-0.48-0.284-0.72-0.555-0.723c-0.115-0.003-0.207,0.032-0.275,0.105
			c-0.069,0.073-0.104,0.16-0.104,0.262c-0.003,0.141,0.126,0.324,0.387,0.551l0.633,0.574c0.107,0.094,0.195,0.178,0.266,0.252
			c0.07,0.074,0.144,0.165,0.221,0.271c0.077,0.106,0.134,0.222,0.172,0.344c0.038,0.122,0.057,0.254,0.057,0.395
			c0,0.391-0.129,0.693-0.389,0.908C1388.788,217.5,1388.457,217.607,1388.053,217.607z"/>
		<path fill="#FFFFFF" d="M1391.412,217.607c-0.523,0-0.9-0.148-1.129-0.441c-0.229-0.294-0.344-0.72-0.344-1.277v-1.34
			c0-0.558,0.115-0.981,0.344-1.273c0.229-0.292,0.605-0.438,1.129-0.438c0.492,0,0.85,0.116,1.072,0.348
			c0.223,0.231,0.334,0.591,0.334,1.078v0.375h-1.02v-0.395c0-0.234-0.028-0.398-0.084-0.49c-0.056-0.093-0.153-0.139-0.291-0.139
			c-0.154,0-0.257,0.055-0.311,0.164c-0.053,0.109-0.08,0.313-0.08,0.609v1.688c0,0.294,0.029,0.493,0.088,0.596
			c0.059,0.103,0.16,0.154,0.303,0.154c0.146,0,0.245-0.05,0.297-0.15c0.052-0.101,0.078-0.252,0.078-0.455v-0.496h1.02v0.438
			c0,0.48-0.114,0.84-0.342,1.082C1392.249,217.486,1391.894,217.607,1391.412,217.607z"/>
		<path fill="#FFFFFF" d="M1393.573,212.177v-0.922h1.098v0.922H1393.573z M1393.573,217.533v-4.625h1.094v4.625H1393.573z"/>
		<path fill="#FFFFFF" d="M1395.526,217.533v-4.625h1.094v0.453c0.373-0.349,0.749-0.523,1.129-0.523
			c0.263,0,0.455,0.097,0.576,0.289s0.182,0.43,0.182,0.711v3.695h-1.094v-3.453c0-0.145-0.021-0.254-0.063-0.324
			c-0.042-0.07-0.123-0.104-0.242-0.102c-0.135,0.003-0.298,0.073-0.488,0.211v3.668H1395.526z"/>
		<path fill="#FFFFFF" d="M1400.912,218.935c-0.138,0-0.258-0.001-0.361-0.004c-0.103-0.003-0.222-0.01-0.357-0.021
			c-0.135-0.012-0.252-0.028-0.35-0.051c-0.098-0.022-0.198-0.053-0.301-0.092c-0.103-0.039-0.186-0.085-0.25-0.139
			c-0.064-0.054-0.117-0.121-0.158-0.203s-0.063-0.174-0.063-0.275c0-0.388,0.217-0.715,0.652-0.98
			c-0.313-0.107-0.478-0.28-0.496-0.52c-0.013-0.167,0.022-0.311,0.105-0.432s0.225-0.264,0.426-0.428
			c-0.172-0.13-0.301-0.293-0.387-0.488c-0.086-0.195-0.129-0.457-0.129-0.785c0-0.567,0.123-0.989,0.369-1.266
			s0.602-0.414,1.068-0.414c0.479,0,0.81,0.151,0.992,0.453c0.057-0.07,0.144-0.153,0.26-0.25c0.116-0.097,0.238-0.176,0.365-0.238
			l0.152-0.07l0.258,0.609c-0.091,0.023-0.229,0.07-0.414,0.141c-0.185,0.07-0.309,0.125-0.371,0.164
			c0.049,0.091,0.092,0.22,0.129,0.385c0.037,0.165,0.055,0.331,0.055,0.498c0,1.058-0.462,1.586-1.387,1.586
			c-0.076,0-0.179-0.011-0.311-0.033c-0.131-0.022-0.217-0.041-0.256-0.057c-0.088,0.133-0.13,0.234-0.125,0.305
			c0.008,0.105,0.143,0.169,0.406,0.195c0.031,0.005,0.17,0.021,0.414,0.045c0.245,0.025,0.388,0.04,0.43,0.045
			c0.388,0.042,0.672,0.154,0.852,0.338c0.18,0.183,0.27,0.446,0.27,0.787c0,0.409-0.115,0.71-0.344,0.904
			C1401.828,218.838,1401.446,218.935,1400.912,218.935z M1400.905,218.166c0.224,0,0.387-0.028,0.49-0.086
			c0.103-0.058,0.156-0.149,0.158-0.277c0.008-0.138-0.027-0.239-0.105-0.303c-0.078-0.063-0.22-0.105-0.426-0.123l-0.734-0.07
			c-0.159,0.184-0.238,0.355-0.238,0.512c0,0.083,0.02,0.148,0.061,0.195c0.041,0.047,0.124,0.084,0.25,0.111
			C1400.486,218.152,1400.668,218.166,1400.905,218.166z M1400.694,215.408c0.182,0,0.301-0.067,0.355-0.203
			c0.055-0.136,0.082-0.375,0.082-0.719c0-0.354-0.026-0.601-0.078-0.738c-0.052-0.138-0.169-0.207-0.351-0.207
			c-0.185,0-0.305,0.069-0.359,0.209c-0.055,0.14-0.082,0.385-0.082,0.736c0,0.125,0.002,0.231,0.008,0.318
			c0.005,0.087,0.017,0.171,0.035,0.252c0.018,0.081,0.043,0.145,0.074,0.193c0.031,0.048,0.073,0.087,0.125,0.115
			C1400.555,215.393,1400.618,215.408,1400.694,215.408z"/>
		<path fill="#FFFFFF" d="M1406.381,217.607c-0.529,0-0.909-0.146-1.141-0.438c-0.232-0.292-0.348-0.723-0.348-1.293v-1.309
			c0-0.57,0.117-1.001,0.351-1.293c0.234-0.292,0.612-0.438,1.133-0.438c0.276,0,0.508,0.04,0.697,0.121
			c0.189,0.081,0.336,0.203,0.441,0.367c0.105,0.164,0.18,0.354,0.224,0.568c0.045,0.215,0.066,0.474,0.066,0.775v0.605h-1.828
			v0.695c0,0.097,0,0.171,0.002,0.225c0.001,0.054,0.006,0.118,0.014,0.193c0.008,0.075,0.02,0.134,0.037,0.176
			c0.017,0.042,0.04,0.084,0.068,0.127c0.029,0.043,0.066,0.073,0.113,0.092c0.047,0.019,0.101,0.027,0.164,0.027
			c0.146,0,0.248-0.052,0.305-0.154c0.057-0.103,0.086-0.252,0.086-0.447v-0.266h1.035v0.184c0,0.479-0.119,0.846-0.357,1.1
			C1407.207,217.48,1406.852,217.607,1406.381,217.607z M1405.979,214.728h0.789v-0.441c0-0.234-0.029-0.402-0.088-0.504
			c-0.059-0.102-0.162-0.152-0.311-0.152c-0.151,0-0.254,0.058-0.309,0.172c-0.055,0.114-0.082,0.323-0.082,0.625V214.728z"/>
		<path fill="#FFFFFF" d="M1408.623,217.533v-6.477h1.094v6.477H1408.623z"/>
		<path fill="#FFFFFF" d="M1410.612,212.177v-0.922h1.098v0.922H1410.612z M1410.612,217.533v-4.625h1.094v4.625H1410.612z"/>
		<path fill="#FFFFFF" d="M1413.854,217.595c-0.211-0.003-0.39-0.038-0.537-0.105c-0.147-0.067-0.26-0.165-0.34-0.291
			c-0.08-0.126-0.137-0.267-0.172-0.424c-0.035-0.156-0.053-0.339-0.053-0.547v-2.598h-0.457v-0.723h0.457v-1.359h1.098v1.359h0.703
			v0.723h-0.703v2.668c0,0.151,0.033,0.26,0.1,0.326c0.066,0.066,0.172,0.101,0.318,0.104c0.101,0.003,0.212-0.005,0.332-0.023
			v0.836C1414.29,217.583,1414.041,217.6,1413.854,217.595z"/>
		<path fill="#FFFFFF" d="M1415.287,218.63l-0.117-0.41c0.154-0.039,0.279-0.118,0.377-0.236c0.098-0.118,0.146-0.268,0.146-0.451
			h-0.574v-1.059h1.074v0.984C1416.194,218.12,1415.891,218.51,1415.287,218.63z"/>
		<path fill="#FFFFFF" d="M1420.053,217.607c-0.383,0-0.697-0.107-0.941-0.32c-0.245-0.214-0.413-0.52-0.504-0.922l0.828-0.301
			c0.057,0.255,0.138,0.448,0.242,0.58c0.104,0.132,0.234,0.194,0.391,0.189c0.115-0.003,0.209-0.044,0.283-0.123
			c0.074-0.079,0.109-0.177,0.104-0.291c-0.01-0.167-0.163-0.376-0.457-0.629l-0.621-0.531c-0.448-0.386-0.667-0.788-0.656-1.207
			c0.008-0.37,0.133-0.665,0.377-0.885c0.244-0.22,0.554-0.33,0.932-0.33c0.362,0,0.656,0.109,0.883,0.328
			c0.227,0.219,0.373,0.512,0.441,0.879l-0.719,0.301c-0.099-0.48-0.284-0.72-0.555-0.723c-0.115-0.003-0.207,0.032-0.275,0.105
			c-0.069,0.073-0.104,0.16-0.104,0.262c-0.003,0.141,0.126,0.324,0.387,0.551l0.633,0.574c0.107,0.094,0.195,0.178,0.266,0.252
			c0.07,0.074,0.144,0.165,0.221,0.271c0.077,0.106,0.134,0.222,0.172,0.344c0.038,0.122,0.057,0.254,0.057,0.395
			c0,0.391-0.129,0.693-0.389,0.908C1420.788,217.5,1420.457,217.607,1420.053,217.607z"/>
		<path fill="#FFFFFF" d="M1423.428,217.607c-0.529,0-0.909-0.146-1.141-0.438c-0.232-0.292-0.348-0.723-0.348-1.293v-1.309
			c0-0.57,0.117-1.001,0.352-1.293c0.234-0.292,0.612-0.438,1.133-0.438c0.276,0,0.508,0.04,0.697,0.121
			c0.189,0.081,0.336,0.203,0.441,0.367c0.105,0.164,0.18,0.354,0.225,0.568c0.044,0.215,0.066,0.474,0.066,0.775v0.605h-1.828
			v0.695c0,0.097,0,0.171,0.002,0.225c0.002,0.054,0.006,0.118,0.014,0.193c0.008,0.075,0.02,0.134,0.037,0.176
			c0.017,0.042,0.04,0.084,0.068,0.127c0.029,0.043,0.066,0.073,0.113,0.092c0.047,0.019,0.102,0.027,0.164,0.027
			c0.146,0,0.248-0.052,0.305-0.154c0.057-0.103,0.086-0.252,0.086-0.447v-0.266h1.035v0.184c0,0.479-0.119,0.846-0.357,1.1
			C1424.254,217.48,1423.899,217.607,1423.428,217.607z M1423.026,214.728h0.789v-0.441c0-0.234-0.029-0.402-0.088-0.504
			c-0.059-0.102-0.162-0.152-0.311-0.152c-0.151,0-0.254,0.058-0.309,0.172c-0.055,0.114-0.082,0.323-0.082,0.625V214.728z"/>
		<path fill="#FFFFFF" d="M1426.651,217.607c-0.378,0-0.66-0.134-0.848-0.402c-0.188-0.268-0.281-0.694-0.281-1.277v-1.344
			c0-0.247,0.019-0.472,0.057-0.672s0.098-0.384,0.18-0.551c0.082-0.167,0.197-0.296,0.346-0.387
			c0.148-0.091,0.326-0.137,0.531-0.137c0.292,0,0.565,0.118,0.82,0.355v-2.137h1.094v6.477h-1.094v-0.316
			C1427.208,217.474,1426.94,217.604,1426.651,217.607z M1427.034,216.826c0.133,0,0.273-0.042,0.422-0.125v-2.953
			c-0.149-0.094-0.291-0.141-0.426-0.141c-0.146,0-0.25,0.066-0.315,0.199c-0.064,0.133-0.096,0.302-0.096,0.508v1.695
			c0,0.167,0.009,0.305,0.027,0.414c0.018,0.109,0.059,0.204,0.123,0.283C1426.834,216.786,1426.922,216.826,1427.034,216.826z"/>
		<path fill="#FFFFFF" d="M1432.389,217.607c-0.378,0-0.66-0.134-0.848-0.402c-0.188-0.268-0.281-0.694-0.281-1.277v-1.344
			c0-0.247,0.019-0.472,0.057-0.672s0.098-0.384,0.18-0.551c0.082-0.167,0.197-0.296,0.346-0.387
			c0.148-0.091,0.326-0.137,0.531-0.137c0.292,0,0.565,0.118,0.82,0.355v-2.137h1.094v6.477h-1.094v-0.316
			C1432.946,217.474,1432.678,217.604,1432.389,217.607z M1432.772,216.826c0.133,0,0.273-0.042,0.422-0.125v-2.953
			c-0.148-0.094-0.291-0.141-0.426-0.141c-0.146,0-0.25,0.066-0.314,0.199c-0.064,0.133-0.096,0.302-0.096,0.508v1.695
			c0,0.167,0.009,0.305,0.027,0.414c0.018,0.109,0.059,0.204,0.123,0.283C1432.572,216.786,1432.66,216.826,1432.772,216.826z"/>
		<path fill="#FFFFFF" d="M1436.514,217.607c-0.498,0-0.868-0.14-1.111-0.42c-0.244-0.28-0.365-0.681-0.365-1.201v-1.527
			c0-0.521,0.122-0.921,0.365-1.201c0.244-0.28,0.614-0.42,1.111-0.42c0.5,0,0.873,0.14,1.119,0.42
			c0.246,0.28,0.369,0.681,0.369,1.201v1.527c0,0.521-0.123,0.921-0.369,1.201C1437.387,217.467,1437.014,217.607,1436.514,217.607z
			 M1436.518,216.837c0.088,0,0.161-0.02,0.217-0.059c0.056-0.039,0.096-0.1,0.121-0.182s0.041-0.161,0.049-0.238
			c0.008-0.077,0.012-0.177,0.012-0.299v-1.676c0-0.097-0.002-0.177-0.006-0.24c-0.004-0.063-0.013-0.134-0.027-0.209
			c-0.014-0.075-0.036-0.135-0.064-0.178c-0.029-0.043-0.068-0.079-0.117-0.109c-0.049-0.03-0.111-0.045-0.184-0.045
			c-0.088,0-0.161,0.021-0.217,0.061c-0.056,0.04-0.096,0.102-0.121,0.184s-0.041,0.161-0.049,0.238
			c-0.008,0.077-0.012,0.177-0.012,0.299v1.676c0,0.097,0.002,0.177,0.006,0.24c0.004,0.063,0.013,0.133,0.027,0.207
			c0.014,0.074,0.036,0.133,0.065,0.176c0.029,0.043,0.068,0.079,0.117,0.109S1436.445,216.837,1436.518,216.837z"/>
		<path fill="#FFFFFF" d="M1442.108,217.607c-0.529,0-0.909-0.146-1.141-0.438c-0.232-0.292-0.348-0.723-0.348-1.293v-1.309
			c0-0.57,0.117-1.001,0.352-1.293c0.234-0.292,0.612-0.438,1.133-0.438c0.276,0,0.508,0.04,0.697,0.121
			c0.189,0.081,0.336,0.203,0.441,0.367c0.105,0.164,0.18,0.354,0.225,0.568c0.044,0.215,0.066,0.474,0.066,0.775v0.605h-1.828
			v0.695c0,0.097,0,0.171,0.002,0.225c0.002,0.054,0.006,0.118,0.014,0.193c0.008,0.075,0.02,0.134,0.037,0.176
			c0.017,0.042,0.04,0.084,0.068,0.127c0.029,0.043,0.066,0.073,0.113,0.092c0.047,0.019,0.102,0.027,0.164,0.027
			c0.146,0,0.248-0.052,0.305-0.154c0.057-0.103,0.086-0.252,0.086-0.447v-0.266h1.035v0.184c0,0.479-0.119,0.846-0.357,1.1
			C1442.934,217.48,1442.579,217.607,1442.108,217.607z M1441.705,214.728h0.789v-0.441c0-0.234-0.029-0.402-0.088-0.504
			c-0.059-0.102-0.162-0.152-0.31-0.152c-0.151,0-0.254,0.058-0.309,0.172c-0.055,0.114-0.082,0.323-0.082,0.625V214.728z"/>
		<path fill="#FFFFFF" d="M1444.315,212.177v-0.922h1.098v0.922H1444.315z M1444.315,217.533v-4.625h1.094v4.625H1444.315z"/>
		<path fill="#FFFFFF" d="M1446.994,217.603c-0.263,0-0.455-0.097-0.576-0.289s-0.182-0.43-0.182-0.711v-3.695h1.09v3.473
			c0,0.144,0.022,0.25,0.066,0.32c0.044,0.07,0.126,0.104,0.246,0.102c0.127,0,0.284-0.066,0.469-0.195v-3.699h1.09v4.625h-1.09
			v-0.434C1447.74,217.435,1447.369,217.603,1446.994,217.603z"/>
		<path fill="#FFFFFF" d="M1451.24,217.607c-0.383,0-0.697-0.107-0.941-0.32c-0.245-0.214-0.413-0.52-0.504-0.922l0.828-0.301
			c0.057,0.255,0.138,0.448,0.242,0.58c0.104,0.132,0.234,0.194,0.391,0.189c0.115-0.003,0.209-0.044,0.283-0.123
			c0.074-0.079,0.109-0.177,0.104-0.291c-0.01-0.167-0.163-0.376-0.457-0.629l-0.621-0.531c-0.448-0.386-0.667-0.788-0.656-1.207
			c0.008-0.37,0.133-0.665,0.377-0.885c0.244-0.22,0.554-0.33,0.932-0.33c0.362,0,0.656,0.109,0.883,0.328
			c0.227,0.219,0.373,0.512,0.441,0.879l-0.719,0.301c-0.099-0.48-0.284-0.72-0.555-0.723c-0.115-0.003-0.207,0.032-0.275,0.105
			c-0.069,0.073-0.104,0.16-0.104,0.262c-0.003,0.141,0.126,0.324,0.387,0.551l0.633,0.574c0.107,0.094,0.195,0.178,0.266,0.252
			c0.07,0.074,0.144,0.165,0.221,0.271c0.077,0.106,0.134,0.222,0.172,0.344c0.038,0.122,0.057,0.254,0.057,0.395
			c0,0.391-0.129,0.693-0.389,0.908C1451.975,217.5,1451.644,217.607,1451.24,217.607z"/>
		<path fill="#FFFFFF" d="M1453.213,217.533v-4.625h1.039v0.406c0.31-0.325,0.676-0.488,1.098-0.488
			c0.385,0,0.642,0.188,0.769,0.566c0.326-0.378,0.715-0.566,1.168-0.566c0.258,0,0.465,0.094,0.621,0.281
			c0.156,0.188,0.234,0.46,0.234,0.816v3.609h-1.039v-3.516c0-0.169-0.028-0.289-0.084-0.359c-0.056-0.07-0.139-0.105-0.248-0.102
			c-0.19,0.005-0.381,0.095-0.574,0.27c0,0.011,0,0.026,0.002,0.047c0.001,0.021,0.002,0.038,0.002,0.051v3.609h-1.035v-3.516
			c0-0.169-0.028-0.289-0.084-0.359c-0.056-0.07-0.14-0.105-0.252-0.102c-0.182,0.005-0.375,0.097-0.578,0.273v3.703H1453.213z"/>
		<path fill="#FFFFFF" d="M1460.342,217.607c-0.498,0-0.868-0.14-1.111-0.42c-0.244-0.28-0.365-0.681-0.365-1.201v-1.527
			c0-0.521,0.122-0.921,0.365-1.201c0.244-0.28,0.614-0.42,1.111-0.42c0.5,0,0.873,0.14,1.119,0.42
			c0.246,0.28,0.369,0.681,0.369,1.201v1.527c0,0.521-0.123,0.921-0.369,1.201C1461.215,217.467,1460.842,217.607,1460.342,217.607z
			 M1460.346,216.837c0.088,0,0.161-0.02,0.217-0.059c0.056-0.039,0.096-0.1,0.121-0.182s0.041-0.161,0.049-0.238
			c0.008-0.077,0.012-0.177,0.012-0.299v-1.676c0-0.097-0.002-0.177-0.006-0.24c-0.004-0.063-0.013-0.134-0.027-0.209
			c-0.014-0.075-0.036-0.135-0.064-0.178c-0.029-0.043-0.068-0.079-0.117-0.109c-0.049-0.03-0.111-0.045-0.184-0.045
			c-0.088,0-0.161,0.021-0.217,0.061c-0.056,0.04-0.096,0.102-0.121,0.184s-0.041,0.161-0.049,0.238
			c-0.008,0.077-0.012,0.177-0.012,0.299v1.676c0,0.097,0.002,0.177,0.006,0.24c0.004,0.063,0.013,0.133,0.027,0.207
			c0.014,0.074,0.036,0.133,0.064,0.176c0.029,0.043,0.068,0.079,0.117,0.109S1460.273,216.837,1460.346,216.837z"/>
		<path fill="#FFFFFF" d="M1463.631,217.607c-0.377,0-0.66-0.134-0.848-0.402c-0.188-0.268-0.281-0.694-0.281-1.277v-1.344
			c0-0.247,0.019-0.472,0.057-0.672s0.098-0.384,0.18-0.551c0.082-0.167,0.197-0.296,0.346-0.387
			c0.148-0.091,0.326-0.137,0.531-0.137c0.292,0,0.565,0.118,0.82,0.355v-2.137h1.094v6.477h-1.094v-0.316
			C1464.188,217.474,1463.92,217.604,1463.631,217.607z M1464.014,216.826c0.133,0,0.273-0.042,0.422-0.125v-2.953
			c-0.148-0.094-0.29-0.141-0.426-0.141c-0.146,0-0.25,0.066-0.314,0.199c-0.064,0.133-0.096,0.302-0.096,0.508v1.695
			c0,0.167,0.009,0.305,0.027,0.414c0.018,0.109,0.059,0.204,0.123,0.283C1463.814,216.786,1463.902,216.826,1464.014,216.826z"/>
		<path fill="#FFFFFF" d="M1372.948,226.525c-0.211-0.003-0.39-0.038-0.537-0.105c-0.147-0.067-0.26-0.165-0.34-0.291
			c-0.08-0.126-0.137-0.268-0.172-0.424c-0.035-0.156-0.053-0.339-0.053-0.547v-2.598h-0.457v-0.723h0.457v-1.359h1.098v1.359h0.703
			v0.723h-0.703v2.668c0,0.151,0.033,0.26,0.1,0.326c0.066,0.066,0.172,0.101,0.318,0.104c0.102,0.003,0.212-0.005,0.332-0.023
			v0.836C1373.384,226.512,1373.135,226.53,1372.948,226.525z"/>
		<path fill="#FFFFFF" d="M1375.717,226.537c-0.529,0-0.909-0.145-1.141-0.438c-0.232-0.292-0.348-0.723-0.348-1.293v-1.309
			c0-0.57,0.117-1.001,0.352-1.293c0.234-0.292,0.612-0.438,1.133-0.438c0.276,0,0.508,0.04,0.697,0.121
			c0.189,0.081,0.336,0.203,0.442,0.367c0.105,0.164,0.18,0.354,0.225,0.568c0.044,0.215,0.066,0.474,0.066,0.775v0.605h-1.828
			v0.695c0,0.097,0,0.171,0.002,0.225c0.001,0.054,0.006,0.118,0.014,0.193c0.008,0.075,0.02,0.134,0.037,0.176
			c0.017,0.042,0.039,0.084,0.068,0.127c0.029,0.043,0.066,0.073,0.113,0.092c0.047,0.019,0.102,0.027,0.164,0.027
			c0.146,0,0.247-0.052,0.305-0.154c0.057-0.103,0.086-0.252,0.086-0.447v-0.266h1.035v0.184c0,0.479-0.119,0.846-0.358,1.1
			C1376.543,226.41,1376.188,226.537,1375.717,226.537z M1375.315,223.658h0.789v-0.441c0-0.234-0.029-0.402-0.088-0.504
			c-0.059-0.102-0.162-0.152-0.311-0.152c-0.151,0-0.254,0.058-0.309,0.172c-0.055,0.114-0.082,0.323-0.082,0.625V223.658z"/>
		<path fill="#FFFFFF" d="M1377.889,226.462v-4.625h1.039v0.406c0.31-0.325,0.676-0.488,1.098-0.488c0.385,0,0.642,0.189,0.77,0.566
			c0.326-0.378,0.715-0.566,1.168-0.566c0.258,0,0.465,0.094,0.621,0.281c0.156,0.188,0.234,0.46,0.234,0.816v3.609h-1.039v-3.516
			c0-0.169-0.028-0.289-0.084-0.359c-0.056-0.07-0.139-0.104-0.248-0.102c-0.19,0.005-0.381,0.095-0.574,0.27
			c0,0.011,0,0.026,0.002,0.047c0.001,0.021,0.002,0.038,0.002,0.051v3.609h-1.035v-3.516c0-0.169-0.028-0.289-0.084-0.359
			c-0.056-0.07-0.14-0.104-0.252-0.102c-0.182,0.005-0.375,0.097-0.578,0.273v3.703H1377.889z"/>
		<path fill="#FFFFFF" d="M1383.627,227.986v-6.148h1.094v0.355c0.287-0.286,0.598-0.429,0.934-0.426
			c0.164,0.003,0.309,0.04,0.435,0.113c0.127,0.073,0.225,0.163,0.297,0.271c0.072,0.108,0.13,0.235,0.176,0.383
			c0.045,0.147,0.076,0.284,0.092,0.41c0.016,0.126,0.023,0.255,0.023,0.385v1.516c0,0.234-0.019,0.45-0.059,0.646
			c-0.039,0.196-0.1,0.375-0.184,0.535c-0.083,0.16-0.197,0.285-0.342,0.375c-0.144,0.09-0.314,0.135-0.51,0.135
			c-0.287,0-0.574-0.14-0.863-0.418v1.867H1383.627z M1385.202,225.752c0.08,0,0.148-0.023,0.203-0.068s0.094-0.112,0.119-0.199
			s0.042-0.177,0.051-0.27c0.009-0.093,0.014-0.204,0.014-0.334v-1.594c0-0.106-0.006-0.202-0.018-0.287
			c-0.012-0.085-0.032-0.165-0.061-0.242c-0.029-0.077-0.072-0.136-0.129-0.176c-0.057-0.04-0.126-0.06-0.207-0.057
			c-0.143,0.003-0.294,0.064-0.453,0.184v2.898C1384.877,225.704,1385.037,225.752,1385.202,225.752z"/>
		<path fill="#FFFFFF" d="M1388.83,226.537c-0.498,0-0.868-0.14-1.111-0.42c-0.244-0.28-0.365-0.681-0.365-1.201v-1.527
			c0-0.521,0.122-0.921,0.365-1.201c0.244-0.28,0.614-0.42,1.111-0.42c0.5,0,0.873,0.14,1.119,0.42
			c0.246,0.28,0.369,0.681,0.369,1.201v1.527c0,0.521-0.123,0.921-0.369,1.201C1389.703,226.397,1389.33,226.537,1388.83,226.537z
			 M1388.834,225.767c0.088,0,0.161-0.02,0.217-0.059c0.056-0.039,0.096-0.1,0.121-0.182c0.025-0.082,0.041-0.161,0.049-0.238
			c0.008-0.077,0.012-0.177,0.012-0.299v-1.676c0-0.097-0.002-0.177-0.006-0.24c-0.004-0.063-0.013-0.134-0.027-0.209
			s-0.036-0.135-0.064-0.178c-0.029-0.043-0.068-0.079-0.117-0.109c-0.049-0.03-0.111-0.045-0.184-0.045
			c-0.088,0-0.161,0.02-0.217,0.061c-0.056,0.04-0.096,0.102-0.121,0.184c-0.025,0.082-0.041,0.161-0.049,0.238
			c-0.008,0.077-0.012,0.177-0.012,0.299v1.676c0,0.097,0.002,0.177,0.006,0.24c0.004,0.063,0.013,0.133,0.027,0.207
			c0.014,0.074,0.036,0.133,0.065,0.176s0.068,0.079,0.117,0.109C1388.7,225.753,1388.761,225.767,1388.834,225.767z"/>
		<path fill="#FFFFFF" d="M1391.084,226.462v-4.625h1.094v0.711c0.154-0.273,0.309-0.47,0.467-0.59
			c0.158-0.12,0.326-0.18,0.506-0.18c0.055,0,0.109,0.007,0.164,0.02v1.082c-0.122-0.047-0.248-0.07-0.379-0.07
			c-0.156,0.005-0.293,0.044-0.412,0.117c-0.119,0.073-0.234,0.194-0.346,0.363v3.172H1391.084z"/>
		<path fill="#FFFFFF" d="M1395.83,221.107v-0.922h1.098v0.922H1395.83z M1395.83,226.462v-4.625h1.094v4.625H1395.83z"/>
		<path fill="#FFFFFF" d="M1397.784,226.462v-4.625h1.094v0.453c0.373-0.349,0.749-0.523,1.129-0.523
			c0.263,0,0.455,0.097,0.576,0.289c0.121,0.192,0.182,0.43,0.182,0.711v3.695h-1.094v-3.453c0-0.146-0.021-0.254-0.063-0.324
			s-0.123-0.104-0.242-0.102c-0.135,0.003-0.298,0.073-0.488,0.211v3.668H1397.784z"/>
		<path fill="#FFFFFF" d="M1402.959,226.537c-0.524,0-0.9-0.147-1.129-0.441c-0.229-0.294-0.344-0.72-0.344-1.277v-1.34
			c0-0.558,0.115-0.981,0.344-1.273c0.229-0.292,0.605-0.438,1.129-0.438c0.492,0,0.85,0.116,1.072,0.348
			c0.223,0.231,0.334,0.591,0.334,1.078v0.375h-1.019v-0.395c0-0.234-0.028-0.397-0.084-0.49c-0.056-0.093-0.153-0.139-0.291-0.139
			c-0.154,0-0.257,0.055-0.311,0.164c-0.053,0.109-0.08,0.313-0.08,0.609v1.688c0,0.294,0.029,0.493,0.088,0.596
			c0.059,0.103,0.16,0.154,0.303,0.154c0.146,0,0.245-0.05,0.297-0.15c0.052-0.101,0.078-0.252,0.078-0.455v-0.496h1.019v0.438
			c0,0.479-0.114,0.84-0.342,1.082C1403.796,226.416,1403.441,226.537,1402.959,226.537z"/>
		<path fill="#FFFFFF" d="M1405.119,221.107v-0.922h1.098v0.922H1405.119z M1405.119,226.462v-4.625h1.094v4.625H1405.119z"/>
		<path fill="#FFFFFF" d="M1408.123,226.537c-0.377,0-0.66-0.134-0.848-0.402s-0.281-0.694-0.281-1.277v-1.344
			c0-0.247,0.019-0.472,0.057-0.672s0.098-0.384,0.18-0.551c0.082-0.167,0.197-0.296,0.346-0.387
			c0.148-0.091,0.326-0.137,0.531-0.137c0.292,0,0.565,0.118,0.82,0.355v-2.137h1.094v6.477h-1.094v-0.316
			C1408.681,226.404,1408.412,226.534,1408.123,226.537z M1408.506,225.755c0.133,0,0.273-0.042,0.422-0.125v-2.953
			c-0.148-0.094-0.29-0.141-0.426-0.141c-0.146,0-0.25,0.066-0.314,0.199c-0.064,0.133-0.096,0.302-0.096,0.508v1.695
			c0,0.167,0.009,0.305,0.027,0.414c0.018,0.109,0.059,0.204,0.123,0.283C1408.306,225.715,1408.394,225.755,1408.506,225.755z"/>
		<path fill="#FFFFFF" d="M1410.893,221.107v-0.922h1.098v0.922H1410.893z M1410.893,226.462v-4.625h1.094v4.625H1410.893z"/>
		<path fill="#FFFFFF" d="M1413.897,226.537c-0.378,0-0.66-0.134-0.848-0.402s-0.281-0.694-0.281-1.277v-1.344
			c0-0.247,0.019-0.472,0.057-0.672s0.098-0.384,0.18-0.551c0.082-0.167,0.197-0.296,0.346-0.387
			c0.148-0.091,0.326-0.137,0.531-0.137c0.292,0,0.565,0.118,0.82,0.355v-2.137h1.094v6.477h-1.094v-0.316
			C1414.454,226.404,1414.186,226.534,1413.897,226.537z M1414.28,225.755c0.133,0,0.273-0.042,0.422-0.125v-2.953
			c-0.149-0.094-0.291-0.141-0.426-0.141c-0.146,0-0.25,0.066-0.315,0.199c-0.064,0.133-0.096,0.302-0.096,0.508v1.695
			c0,0.167,0.009,0.305,0.027,0.414c0.018,0.109,0.059,0.204,0.123,0.283C1414.08,225.715,1414.168,225.755,1414.28,225.755z"/>
		<path fill="#FFFFFF" d="M1417.358,226.533c-0.263,0-0.455-0.097-0.576-0.289c-0.121-0.192-0.182-0.43-0.182-0.711v-3.695h1.09
			v3.473c0,0.144,0.022,0.25,0.067,0.32c0.044,0.07,0.126,0.105,0.246,0.102c0.128,0,0.284-0.066,0.469-0.195v-3.699h1.09v4.625
			h-1.09v-0.434C1418.104,226.365,1417.733,226.533,1417.358,226.533z"/>
		<path fill="#FFFFFF" d="M1420.405,226.462v-4.625h1.094v0.453c0.373-0.349,0.749-0.523,1.129-0.523
			c0.263,0,0.455,0.097,0.576,0.289c0.121,0.192,0.182,0.43,0.182,0.711v3.695h-1.094v-3.453c0-0.146-0.021-0.254-0.063-0.324
			s-0.123-0.104-0.242-0.102c-0.135,0.003-0.298,0.073-0.488,0.211v3.668H1420.405z"/>
		<path fill="#FFFFFF" d="M1425.483,226.525c-0.211-0.003-0.39-0.038-0.537-0.105c-0.147-0.067-0.26-0.165-0.34-0.291
			c-0.08-0.126-0.137-0.268-0.172-0.424c-0.035-0.156-0.053-0.339-0.053-0.547v-2.598h-0.457v-0.723h0.457v-1.359h1.098v1.359h0.703
			v0.723h-0.703v2.668c0,0.151,0.033,0.26,0.1,0.326c0.066,0.066,0.172,0.101,0.318,0.104c0.101,0.003,0.212-0.005,0.332-0.023
			v0.836C1425.919,226.512,1425.67,226.53,1425.483,226.525z"/>
	</g>
	<rect x="1369.13" y="137.794" display="inline" fill="#FFFFFF" width="25.871" height="3.105"/>
</g>
<g display="none">
	<linearGradient id="SVGID_2_" gradientUnits="userSpaceOnUse" x1="1588.7648" y1="272.2364" x2="1655.8528" y2="272.2364">
		<stop  offset="0" style="stop-color:#5761D7"/>
		<stop  offset="0.0726" style="stop-color:#5472D8"/>
		<stop  offset="0.2791" style="stop-color:#4E9CDB"/>
		<stop  offset="0.4801" style="stop-color:#49BDDD"/>
		<stop  offset="0.6715" style="stop-color:#45D5DF"/>
		<stop  offset="0.8493" style="stop-color:#43E3E0"/>
		<stop  offset="1" style="stop-color:#42E8E0"/>
	</linearGradient>
	<path display="inline" opacity="0.8" fill="url(#SVGID_2_)" d="M1653.509,281.46h-62.401c-1.294,0-2.344-1.049-2.344-2.343v-13.76
		c0-1.294,1.049-2.343,2.344-2.343h62.401c1.294,0,2.343,1.049,2.343,2.343v13.76C1655.853,280.411,1654.804,281.46,1653.509,281.46
		z"/>
	<g display="inline">
		<path fill="#FFFFFF" d="M1601.44,276.887v-8.19h-1.773v-0.64h4.34v0.64h-1.73v8.19H1601.44z"/>
		<path fill="#FFFFFF" d="M1604.72,276.887v-8.83h2.008c0.784,0,1.346,0.189,1.683,0.567c0.338,0.378,0.506,0.933,0.506,1.664
			c0,1.218-0.41,1.912-1.229,2.082l1.368,4.517h-0.82l-1.294-4.341h-1.385v4.341H1604.72z M1605.556,271.934h1.124
			c0.532,0,0.903-0.13,1.113-0.392c0.209-0.261,0.313-0.679,0.313-1.254c0-0.567-0.099-0.978-0.298-1.23
			c-0.199-0.252-0.566-0.378-1.103-0.378h-1.15V271.934z"/>
		<path fill="#FFFFFF" d="M1611.718,276.887v-2.935l-1.992-5.895h0.814l1.588,4.905l1.528-4.905h0.815l-1.943,5.895v2.935H1611.718z
			"/>
		<path fill="#FFFFFF" d="M1617.688,276.887v-8.83h0.82v8.83H1617.688z"/>
		<path fill="#FFFFFF" d="M1621.022,276.887v-8.19h-1.774v-0.64h4.341v0.64h-1.731v8.19H1621.022z"/>
		<path fill="#FFFFFF" d="M1626.529,276.887v-8.83h0.612l2.813,6.854v-6.854h0.713v8.83h-0.585l-2.834-6.934v6.934H1626.529z"/>
		<path fill="#FFFFFF" d="M1634.293,276.999c-0.427,0-0.789-0.065-1.089-0.195c-0.301-0.129-0.535-0.319-0.703-0.569
			c-0.169-0.25-0.291-0.534-0.365-0.853c-0.074-0.317-0.111-0.686-0.111-1.104v-3.664c0-0.416,0.038-0.779,0.114-1.092
			c0.076-0.313,0.2-0.589,0.373-0.828c0.172-0.24,0.407-0.422,0.705-0.546c0.299-0.124,0.657-0.186,1.076-0.186
			s0.777,0.063,1.075,0.186c0.299,0.124,0.534,0.307,0.706,0.549c0.172,0.241,0.296,0.518,0.373,0.83
			c0.076,0.313,0.114,0.675,0.114,1.087v3.675c0,0.33-0.022,0.628-0.066,0.895c-0.045,0.267-0.121,0.515-0.229,0.745
			c-0.108,0.231-0.247,0.424-0.418,0.578c-0.17,0.154-0.387,0.275-0.649,0.362C1634.936,276.955,1634.634,276.999,1634.293,276.999z
			 M1633.579,276.197c0.191,0.087,0.43,0.13,0.714,0.13c0.284,0,0.521-0.043,0.714-0.13c0.191-0.087,0.338-0.218,0.439-0.392
			c0.102-0.174,0.173-0.367,0.214-0.58c0.04-0.214,0.061-0.469,0.061-0.768v-3.994c0-0.298-0.021-0.553-0.061-0.764
			c-0.041-0.212-0.112-0.402-0.214-0.573c-0.101-0.17-0.247-0.297-0.439-0.381c-0.192-0.083-0.43-0.125-0.714-0.125
			c-0.284,0-0.522,0.042-0.714,0.125c-0.191,0.084-0.338,0.211-0.44,0.381c-0.101,0.171-0.172,0.361-0.213,0.573
			c-0.041,0.211-0.062,0.466-0.062,0.764v3.994c0,0.299,0.021,0.554,0.062,0.768c0.041,0.213,0.111,0.406,0.213,0.58
			C1633.242,275.98,1633.388,276.11,1633.579,276.197z"/>
		<path fill="#FFFFFF" d="M1639.033,276.887l-1.502-8.824l0.714-0.006l1.161,7.169l1.337-7.035h0.687l1.358,7.045l1.081-7.179h0.703
			l-1.428,8.83h-0.649l-1.4-7.291l-1.391,7.291H1639.033z"/>
	</g>
</g>
<path fill-rule="evenodd" clip-rule="evenodd" fill="#FFFFFF" d="M-5.167,389.176c0-76.333,961.247,259.324,1473.797-49.44
	c138.628-83.51,388.545-61.733,541.974-110.074C2169.371,179.638,2225.594,0,2225.594,0v497.842H-5.167"/>
</svg>
